<?xml version="1.0" encoding="UTF-8" standalone="no"?>
<!-- Created with Inkscape (http://www.inkscape.org/) -->

<svg
   xmlns:dc="http://purl.org/dc/elements/1.1/"
   xmlns:cc="http://creativecommons.org/ns#"
   xmlns:rdf="http://www.w3.org/1999/02/22-rdf-syntax-ns#"
   xmlns:svg="http://www.w3.org/2000/svg"
   xmlns="http://www.w3.org/2000/svg"
   xmlns:inkscape="http://www.inkscape.org/namespaces/inkscape"
   version="1.1"
   viewBox="0 0 277 76"
   id="svg2"
   xml:space="preserve"><metadata
     id="metadata8"><rdf:RDF><cc:Work
         rdf:about=""><dc:format>image/svg+xml</dc:format><dc:type
           rdf:resource="http://purl.org/dc/dcmitype/StillImage" /></cc:Work></rdf:RDF></metadata><defs
     id="defs6" /><g
     transform="matrix(1.25,0,0,-1.25,0,75.675)"
     id="g10"><g
       transform="scale(0.1,0.1)"
       id="g12"><path
         d="m 434.402,48.25 c 66.543,2.1094 104.149,12.668 104.149,94.551 l 0,139.082 c -0.117,25.601 1.297,35.562 -2.399,50.187 -3.05,11.942 -7.875,22.285 -40.238,20.086 -6.398,-0.468 -9.762,-0.578 -42.5,-4.09 l 0.047,35.258 c 0,0 158.945,37.617 198.977,47.668 16.214,4.07 26.656,6.192 31.269,6.192 1.188,-2.473 1.781,-5.086 1.781,-7.891 l 0,-286.395 c 0,-82.1363 38.012,-92.4019 100.707,-94.648 l 0,-36.582 -351.793,0 0,36.582"
         inkscape:connector-curvature="0"
         id="path14"
         style="fill:#4b2a91;fill-opacity:1;fill-rule:nonzero;stroke:none" /><path
         d="m 605.117,494.617 c 48.481,0 87.797,24.863 87.797,55.403 0,30.664 -39.316,55.418 -87.797,55.418 -48.57,0 -87.844,-24.754 -87.844,-55.418 0,-30.54 39.274,-55.403 87.844,-55.403"
         inkscape:connector-curvature="0"
         id="path16"
         style="fill:#4b2a91;fill-opacity:1;fill-rule:nonzero;stroke:none" /><path
         d="m 273.535,285.34 c -2.402,33.387 -13.539,62.726 -55.648,62.726 -31.77,0 -61.965,-27.031 -61.965,-125.5 0,-92.89 23.859,-125.5269 77.121,-125.5269 48.418,0 66.762,33.3789 79.43,71.5229 l 107.332,-19.05 C 383.176,56.5234 321.227,0 216.309,0 90.6602,0 0,81.9727 0,222.566 c 0,129.469 87.5117,222.532 214.73,222.532 103.321,0 168.446,-52.477 193.903,-151.047 L 273.535,285.34"
         inkscape:connector-curvature="0"
         id="path18"
         style="fill:#4b2a91;fill-opacity:1;fill-rule:nonzero;stroke:none" /><path
         d="m 825.27,11.2188 90.554,0 26.996,64.2578 c 30.172,-50.5664 79.96,-75.117225 136.78,-75.117225 96.16,0 175.72,82.550825 175.72,226.202625 0,102.997 -44.57,214.805 -162.25,214.805 -52.15,0 -91.67,-19.004 -116.91,-58.605 l -1.59,0 0,173.691 -149.3,0 0,-545.2342 z m 149.3,306.3862 c 22.118,23.145 40.31,31.926 60.85,31.926 46.57,0 63.93,-42.226 63.93,-132.531 0,-89.395 -20.49,-129.2969 -68.72,-129.2969 -33.942,0 -56.06,26.3279 -56.06,72.6759 l 0,157.226"
         inkscape:connector-curvature="0"
         id="path20"
         style="fill:#4b2a91;fill-opacity:1;fill-rule:nonzero;stroke:none" /><path
         d="m 1738.15,194.727 0,11.894 c 0,165.504 -97.9,238.676 -223.44,238.676 -138.2,0 -225.74,-93.016 -225.74,-222.602 0,-140.5388 93.07,-222.355156 225.74,-222.355156 100.9,0 171.69,38.898456 223.44,114.426156 l -98.76,44.343 c -18.25,-38.015 -58.8,-61.7848 -96.06,-61.7848 -56.32,0 -98.38,37.1758 -98.38,97.4028 l 293.2,0 z m -287.7,80.839 c 0.75,46.329 19.03,82.196 69.86,82.196 42.81,0 63.5,-37.559 61.96,-82.196 l -131.82,0"
         inkscape:connector-curvature="0"
         id="path22"
         style="fill:#4b2a91;fill-opacity:1;fill-rule:nonzero;stroke:none" /><path
         d="m 1786.9,434.512 149.25,0 -0.21,-66.168 1.66,0 c 30.09,47.711 92.11,73.922 149.26,77.105 l 0,-155.754 c -31.66,15.129 -59.53,21.481 -80.78,21.481 -27.77,0 -47.7,-10.332 -69.93,-28.571 l 0,-271.4839 -149.25,0 0,423.3909"
         inkscape:connector-curvature="0"
         id="path24"
         style="fill:#4b2a91;fill-opacity:1;fill-rule:nonzero;stroke:none" /><path
         d="m 2157.62,413.355 13.39,0 c 3.46,0 6.1,0.891 7.82,2.68 1.71,1.742 2.56,3.953 2.56,6.567 0,2.707 -0.94,4.738 -2.72,6.128 -1.83,1.368 -4.07,2.086 -6.85,2.086 l -14.2,0 0,-17.461 z m 32.91,-28.339 -8.51,0 -10.11,22.254 -14.29,0 0,-22.254 -7.62,0 0,52.265 21.99,0 c 5.91,0 10.34,-1.562 13.29,-4.586 2.91,-3.066 4.41,-6.465 4.41,-10.179 0,-2.766 -0.81,-5.442 -2.41,-8.016 -1.62,-2.492 -4.17,-4.34 -7.6,-5.418 l 10.85,-24.066 z m 17.28,26.117 c 0,10.586 -3.72,19.683 -11.25,27.226 -7.56,7.489 -16.62,11.293 -27.23,11.293 -10.55,0 -19.61,-3.804 -27.18,-11.332 -7.52,-7.558 -11.3,-16.625 -11.3,-27.187 0,-10.59 3.76,-19.653 11.23,-27.192 7.55,-7.511 16.63,-11.269 27.25,-11.269 10.56,0 19.62,3.781 27.18,11.289 7.54,7.551 11.3,16.629 11.3,27.172 m 6.47,0 c 0,-12.348 -4.43,-22.914 -13.18,-31.695 -8.86,-8.833 -19.45,-13.227 -31.77,-13.227 -12.32,0 -22.94,4.394 -31.75,13.227 -8.76,8.781 -13.19,19.347 -13.19,31.695 0,12.328 4.43,22.875 13.19,31.719 8.81,8.836 19.43,13.21 31.75,13.21 12.32,0 22.91,-4.374 31.77,-13.21 8.75,-8.844 13.18,-19.391 13.18,-31.719"
         inkscape:connector-curvature="0"
         id="path26"
         style="fill:#4b2a91;fill-opacity:1;fill-rule:nonzero;stroke:none" /></g></g></svg>