<svg viewBox="0 0 330 110" xmlns="http://www.w3.org/2000/svg">
 <metadata id="metadata8">image/svg+xml</metadata>

 <g>
  <title>Layer 1</title>
  <path fill="#231f20" fill-rule="nonzero" id="path46" d="m116.008911,2.036011c0,0 0,11.101685 0,11.101685c0,0 -1.473984,0 -1.473984,0c-0.148331,-1.71875 -0.345474,-3.880615 -1.867691,-6.435547c-1.768188,-2.996826 -4.176025,-3.144531 -6.533813,-3.242188c0,0 -2.751465,0 -2.751465,0c0,0 -0.04763,4.421387 -0.04763,4.421387c0,0 0,22.647705 0,22.647705c0,0 0.04763,5.009766 0.04763,5.009766c0,0 5.307022,0 5.307022,0c0,0 0,1.179199 0,1.179199c0,0 -16.112686,0 -16.112686,0c0,0 0,-1.179199 0,-1.179199c0,0 5.303955,0 5.303955,0c0,0 0.049988,-5.009766 0.049988,-5.009766c0,0 0,-22.647705 0,-22.647705c0,0 -0.049988,-4.421387 -0.049988,-4.421387c0,0 -2.260132,0 -2.260132,0c-2.849121,0.048256 -5.009766,0.048256 -7.073364,3.339844c-1.621094,2.60376 -1.768188,4.666748 -1.86705,6.337891c0,0 -1.42395,0 -1.42395,0c0,0 0,-11.101685 0,-11.101685c0,0 30.753159,0 30.753159,0z"/>
  <path fill="#231f20" fill-rule="nonzero" id="path48" d="m129.960327,2.036011c0,0 16.99707,24.710083 16.99707,24.710083c0,0 0,-19.01123 0,-19.01123c0,0 -0.047623,-4.520874 -0.047623,-4.520874c0,0 -5.109863,0 -5.109863,0c0,0 0,-1.177979 0,-1.177979c0,0 10.95459,0 10.95459,0c0,0 0,1.177979 0,1.177979c0,0 -4.224854,0 -4.224854,0c0,0 -0.050018,4.520874 -0.050018,4.520874c0,0 0,29.42749 0,29.42749c0,0 -0.786133,0.245361 -0.786133,0.245361c0,0 -22.794189,-33.161011 -22.794189,-33.161011c0,0 0,26.626587 0,26.626587c0,0 0.050018,4.665527 0.050018,4.665527c0,0 5.257538,0 5.257538,0c0,0 0,1.179199 0,1.179199c0,0 -11.35009,0 -11.35009,0c0,0 0,-1.179199 0,-1.179199c0,0 4.521484,0 4.521484,0c0,0 0.046387,-4.665527 0.046387,-4.665527c0,0 0,-23.138428 0,-23.138428c0,0 -0.046387,-4.520874 -0.046387,-4.520874c0,0 -4.521484,0 -4.521484,0c0,0 0,-1.177979 0,-1.177979c0,0 11.103539,0 11.103539,0l0.000015,0z"/>
  <path fill="#231f20" fill-rule="nonzero" id="path50" d="m171.829224,2.036011c0,0 0,1.177979 0,1.177979c0,0 -4.865707,0 -4.865707,0c0,0 -0.046387,4.175415 -0.046387,4.175415c0,0 0,18.76709 0,18.76709c0.046387,4.863281 0.147705,9.482422 9.284668,9.482422c9.234619,0 9.824219,-4.029541 9.970703,-8.400879c0,0 0,-19.848633 0,-19.848633c0,0 -0.047623,-4.175415 -0.047623,-4.175415c0,0 -4.959732,0 -4.959732,0c0,0 0,-1.177979 0,-1.177979c0,0 10.853287,0 10.853287,0c0,0 0,1.177979 0,1.177979c0,0 -4.27124,0 -4.27124,0c0,0 -0.048889,4.175415 -0.048889,4.175415c0,0 0,17.883301 0,17.883301c-0.051254,6.435547 -0.100113,11.937256 -12.823486,11.937256c-1.815186,0 -6.141357,-0.195313 -8.890381,-1.326904c-4.372559,-1.866455 -4.470215,-5.698242 -4.520264,-10.413818c0,0 0,-18.079834 0,-18.079834c0,0 -0.050003,-4.175415 -0.050003,-4.175415c0,0 -4.224838,0 -4.224838,0c0,0 0,-1.177979 0,-1.177979c0,0 14.639877,0 14.639877,0l0.000015,0z"/>
  <path fill="#2350a4" fill-rule="nonzero" id="path52" d="m26.178589,28.18042c0,0 -17.454834,0 -17.454834,0c0,0 0,-17.458496 0,-17.458496c0,0 17.454834,0 17.454834,0c0,0 0,17.458496 0,17.458496zm0,-26.18042c0,0 -17.454834,0 -17.454834,0c-4.818115,0 -8.723755,3.90564 -8.723755,8.721924c0,0 0,17.458496 0,17.458496c0,4.815674 3.90564,8.720703 8.723755,8.720703c0,0 17.454834,0 17.454834,0c4.817503,0 8.722527,-3.905029 8.722527,-8.720703c0,0 0,-17.458496 0,-17.458496c0,-4.816284 -3.905024,-8.721924 -8.722527,-8.721924z"/>
  <path fill="#2350a4" fill-rule="nonzero" id="path54" d="m17.392578,12.233154c-3.954477,0 -7.158813,3.206787 -7.158813,7.159424c0,3.955078 3.204336,7.158203 7.158813,7.158203c3.953247,0 7.158813,-3.203125 7.158813,-7.158203c0,-3.952637 -3.205566,-7.159424 -7.158813,-7.159424z"/>
  <path fill="#231f20" fill-rule="nonzero" id="path56" d="m59.316406,2.036011c0,0 16.99707,24.710083 16.99707,24.710083c0,0 0,-19.01123 0,-19.01123c0,0 -0.048866,-4.520874 -0.048866,-4.520874c0,0 -5.108032,0 -5.108032,0c0,0 0,-1.177979 0,-1.177979c0,0 10.95459,0 10.95459,0c0,0 0,1.177979 0,1.177979c0,0 -4.225464,0 -4.225464,0c0,0 -0.048866,4.520874 -0.048866,4.520874c0,0 0,29.42749 0,29.42749c0,0 -0.786156,0.245361 -0.786156,0.245361c0,0 -22.794167,-33.161011 -22.794167,-33.161011c0,0 0,26.626587 0,26.626587c0,0 0.048233,4.665527 0.048233,4.665527c0,0 5.255135,0 5.255135,0c0,0 0,1.179199 0,1.179199c0,0 -11.345833,0 -11.345833,0c0,0 0,-1.179199 0,-1.179199c0,0 4.518448,0 4.518448,0c0,0 0.048874,-4.665527 0.048874,-4.665527c0,0 0,-23.138428 0,-23.138428c0,0 -0.048874,-4.520874 -0.048874,-4.520874c0,0 -4.518448,0 -4.518448,0c0,0 0,-1.177979 0,-1.177979c0,0 11.102295,0 11.102295,0l0.000061,0z"/>
  <text x="-3.033104" y="-1.247067" id="text60" transform="matrix(1.25 0 0 1.25 52.7098 72.9082)">
   <tspan font-size="18px" font-weight="normal" fill="#231f20" fill-rule="nonzero" font-family="Walbaum" id="tspan62" y="0" x="0 6.6599998 18 26.334 32.327999 38.015999 44.009998 55.349998 61.344002 67.337997 72.342003 78.335999 88.667999 96.660004 101.664 112.338 122.346 128.34 138.34801 144.342 154.35001 165.024 176.364 182.052 192.726 203.39999">Institutt for datateknikk</tspan>
  </text>
  <text x="-3.033104" y="-1.247067" id="text64" transform="matrix(1.25 0 0 1.25 52.7098 102.908)">
   <tspan font-size="18px" font-weight="normal" fill="#231f20" fill-rule="nonzero" font-family="Walbaum" id="tspan66" y="0" x="0 10.332 20.664 25.667999 31.356001 42.695999 48.689999 59.021999 67.014 84.005997 94.014 102.348 108.036 118.368 129.70799 138.04201 147.70799 153.396 159.39 169.39799 180.73801 189.07201 199.746 209.754">og informasjonsvitenskap</tspan>
  </text>
 </g>
</svg>