<svg viewBox="0 0 298 72" xmlns="http://www.w3.org/2000/svg">
 <metadata id="metadata8">image/svg+xml</metadata>
 <defs>
  <clipPath id="clipPath16">
   <path id="path18" d="m120.490005,737.731995l11.203018,42.790039l10.949005,0l-11.002014,-42.790039l-11.150009,0z"/>
  </clipPath>
  <linearGradient spreadMethod="pad" id="linearGradient24" y2="-0.085786" x2="0.500017" y1="0.749307" x1="0.500017">
   <stop stop-color="#558bc0" offset="0" id="stop26"/>
   <stop stop-color="#505a74" offset="1" id="stop28"/>
  </linearGradient>
  <clipPath id="clipPath40">
   <path id="path42" d="m137.949036,737.731995l8.330994,31.877991l11.154022,0l-8.331024,-31.877991l-11.153992,0z"/>
  </clipPath>
  <linearGradient spreadMethod="pad" id="linearGradient48" y2="-0.115672" x2="0.499993" y1="1.010303" x1="0.499993">
   <stop stop-color="#558bc0" offset="0" id="stop50"/>
   <stop stop-color="#505a74" offset="1" id="stop52"/>
  </linearGradient>
  <clipPath id="clipPath64">
   <path id="path66" d="m179.958038,769.228027c-2.011993,-0.682983 -4.192993,-1.801025 -6.488983,-3.328003l0,0l0.940979,3.709961l-10.595978,0l-8.32901,-31.877991l11.149994,0l3.411011,13.067017c0.970978,3.71106 1.852997,6.195007 2.621002,7.386047l0,0c1.052002,1.664001 2.518982,3.021973 4.359985,4.033936l0,0c1.843018,1.015076 3.535004,1.530029 5.028992,1.530029l0,0c1.355011,0 2.421021,-0.292969 3.167023,-0.872009l0,0c0.735992,-0.566956 1.09198,-1.330994 1.09198,-2.33197l0,0c0,-0.47998 -0.343994,-2.054016 -1.022003,-4.68103l0,0l-4.735992,-18.132019l11.153015,0l4.661987,17.934021c0.824005,3.119019 1.225006,5.187012 1.225006,6.325012l0,0c0,2.515015 -0.971008,4.562988 -2.886017,6.085022l0,0c-1.901978,1.507935 -4.521973,2.271973 -7.787994,2.271973l0,0c-2.424988,0 -4.768982,-0.375977 -6.964996,-1.119995"/>
  </clipPath>
  <linearGradient spreadMethod="pad" id="linearGradient72" y2="-0.113" x2="0.499999" y1="0.987053" x1="0.499999">
   <stop stop-color="#558bc0" offset="0" id="stop74"/>
   <stop stop-color="#505a74" offset="1" id="stop76"/>
  </linearGradient>
  <clipPath id="clipPath84">
   <path id="path86" d="m-179.417969,1161.009888l595.280029,0l0,-793.69986l-595.280029,0l0,793.69986z"/>
  </clipPath>
  <clipPath id="clipPath96">
   <path id="path98" d="m204.51004,763.470032c-3.006012,-3.377014 -4.529999,-7.288025 -4.529999,-11.625977l0,0c0,-4.455017 1.695007,-8.085999 5.040985,-10.791016l0,0c3.330017,-2.692017 7.70401,-4.057007 13.005005,-4.057007l0,0c3.855011,0 7.389008,0.778015 10.503021,2.314026l0,0c3.118988,1.539978 5.643982,3.882935 7.506989,6.963989l0,0l0.217987,0.359985l-10.062988,1.346008l-0.095001,-0.141968c-1.904999,-2.815063 -4.593994,-4.243042 -7.994995,-4.243042l0,0c-2.062012,0 -3.830994,0.622009 -5.259003,1.85199l0,0c-1.416992,1.213989 -2.13501,2.83905 -2.13501,4.833008l0,0c0,0.125 0.006012,0.287964 0.019012,0.491028l0,0l26.494995,0l0.05899,0.19696c0.497009,1.653992 0.749023,3.534973 0.749023,5.594971l0,0c0,4.331055 -1.460022,7.752014 -4.33902,10.167053l0,0c-2.865997,2.401001 -6.772003,3.617981 -11.606995,3.617981l0,0c-7.567993,0 -13.480011,-2.312988 -17.572998,-6.877991m10.716003,-1.640015c1.675995,1.27301 3.598999,1.919006 5.716003,1.919006l0,0c2.105988,0 3.804993,-0.561035 5.049988,-1.667969l0,0c1.235016,-1.105042 1.862,-2.791992 1.862,-5.015991l0,0c0,-0.14502 -0.006989,-0.338074 -0.020996,-0.579041l0,0l-15.941986,0c0.617981,2.334961 1.73999,4.131042 3.334991,5.343994"/>
  </clipPath>
  <linearGradient spreadMethod="pad" id="linearGradient104" y2="-0.088004" x2="0.499983" y1="0.987339" x1="0.499983">
   <stop stop-color="#558bc0" offset="0" id="stop106"/>
   <stop stop-color="#505a74" offset="1" id="stop108"/>
  </linearGradient>
  <clipPath id="clipPath116">
   <path id="path118" d="m-179.417969,1161.009888l595.280029,0l0,-793.69986l-595.280029,0l0,793.69986z"/>
  </clipPath>
  <clipPath id="clipPath128">
   <path id="path130" d="m147.69104,777.893066c0,-2.958984 2.574005,-5.358032 5.752014,-5.358032l0,0c3.173981,0 5.75,2.399048 5.75,5.358032l0,0c0,2.958984 -2.576019,5.359009 -5.75,5.359009l0,0c-3.178009,0 -5.752014,-2.400024 -5.752014,-5.359009"/>
  </clipPath>
  <linearGradient spreadMethod="pad" id="linearGradient136" y2="-0.098549" x2="-0.144782" y1="1.110703" x1="1.158117">
   <stop stop-color="#ea7b50" offset="0" id="stop138"/>
   <stop stop-color="#f7ac4a" offset="1" id="stop140"/>
  </linearGradient>
  <clipPath id="clipPath148">
   <path id="path150" d="m-179.417969,1161.009888l595.280029,0l0,-793.69986l-595.280029,0l0,793.69986z"/>
  </clipPath>
  <clipPath id="clipPath160">
   <path id="path162" d="m51.719006,764.933044c1.177002,8.622986 5.082001,14.182007 5.082001,14.182007l0,0c0,0 -27.993999,-4.856995 -56.801006,-43.994019l0,0c19.630005,19.176025 35.583004,27.691956 45.363003,32.052979l0,0c-1.777008,-3.476013 -3.837006,-17.375 -3.837006,-17.375l0,0c0,0 30.709003,25.677979 84.091022,29.541016l0,0c-3.313019,0.294983 -6.636993,0.429993 -9.942993,0.429993l0,0c-29.244019,0 -57.129017,-10.599976 -63.955021,-14.836975"/>
  </clipPath>
  <linearGradient spreadMethod="pad" id="linearGradient168" y2="0.487899" x2="0.218084" y1="1.172438" x1="0.945372">
   <stop stop-color="#ea7b50" offset="0" id="stop170"/>
   <stop stop-color="#f7ac4a" offset="1" id="stop172"/>
  </linearGradient>
  <clipPath id="clipPath180">
   <path id="path182" d="m-179.417969,1161.009888l595.280029,0l0,-793.69986l-595.280029,0l0,793.69986z"/>
  </clipPath>
  <clipPath id="clipPath192">
   <path id="path194" d="m102.654007,769.228027c-2.014008,-0.682983 -4.194,-1.801025 -6.48999,-3.328003l0,0l0.942993,3.709961l-10.597992,0l-8.332001,-31.877991l11.155975,0l3.406006,13.067017c0.971008,3.705994 1.85202,6.189026 2.621002,7.386047l0,0c1.053009,1.664978 2.520996,3.022949 4.363007,4.033936l0,0c1.842987,1.015076 3.535004,1.530029 5.028992,1.530029l0,0c1.354004,0 2.421021,-0.292969 3.169006,-0.872009l0,0c0.733002,-0.569031 1.088989,-1.33197 1.088989,-2.33197l0,0c0,-0.337036 -0.177979,-1.425049 -1.02298,-4.68103l0,0l-4.735016,-18.132019l11.153015,0l4.66098,17.934021c0.825012,3.122009 1.226013,5.190002 1.226013,6.325012l0,0c0,2.513977 -0.972015,4.562012 -2.886993,6.085022l0,0c-1.899017,1.507935 -4.518005,2.271973 -7.786011,2.271973l0,0c-2.427002,0 -4.769989,-0.375977 -6.964996,-1.119995"/>
  </clipPath>
  <linearGradient spreadMethod="pad" id="linearGradient200" y2="-0.113" x2="0.500008" y1="0.987053" x1="0.500008">
   <stop stop-color="#558bc0" offset="0" id="stop202"/>
   <stop stop-color="#505a74" offset="1" id="stop204"/>
  </linearGradient>
  <clipPath id="clipPath212">
   <path id="path214" d="m-179.417969,1161.009888l595.280029,0l0,-793.69986l-595.280029,0l0,793.69986z"/>
  </clipPath>
  <clipPath id="clipPath224">
   <path id="path226" d="m78.978012,767.280029c-4.912003,-1.80304 -9.75,-3.843994 -14.382996,-6.06604l0,0l-0.097,-0.046997l-0.039001,-0.098938c-0.403,-1.007996 -0.828007,-1.937012 -1.298008,-2.840027l0,0c-2.039001,-3.905029 -4.649002,-6.857971 -7.758987,-8.776978l0,0c-3.111008,-1.91803 -6.396011,-2.890991 -9.761002,-2.890991l0,0c-4.132004,0 -7.507004,1.222961 -10.033005,3.637939l0,0c-2.057007,1.965027 -3.287991,4.369019 -3.660994,7.145996l0,0l-0.056,0.420044l-0.362,-0.221008c-3.611006,-2.211975 -7.249006,-4.675964 -10.813002,-7.319031l0,0l-0.17601,-0.129944l0.088013,-0.202026c0.162994,-0.373962 0.330994,-0.750977 0.514999,-1.126038l0,0c1.651001,-3.372925 4.488998,-6.235962 8.432999,-8.509949l0,0c3.938992,-2.271973 8.873989,-3.424988 14.669994,-3.424988l0,0c6.660004,0 12.716003,1.444946 18.000992,4.295959l0,0c5.288013,2.851013 9.532017,6.97699 12.612003,12.266052l0,0c2.542007,4.359924 4.052017,8.936951 4.488998,13.60199l0,0l0.040985,0.434937l-0.41098,-0.149963z"/>
  </clipPath>
  <linearGradient spreadMethod="pad" id="linearGradient232" y2="-0.139516" x2="0.499997" y1="1.027148" x1="0.499997">
   <stop stop-color="#558bc0" offset="0" id="stop234"/>
   <stop stop-color="#505a74" offset="1" id="stop236"/>
  </linearGradient>
  <clipPath id="clipPath244">
   <path id="path246" d="m-179.417969,1161.009888l595.280029,0l0,-793.69986l-595.280029,0l0,793.69986z"/>
  </clipPath>
  <clipPath id="clipPath256">
   <path id="path258" d="m38.177013,789.595032c-4.494003,-2.007996 -8.271999,-4.78302 -11.229,-8.246033l0,0c-2.953995,-3.458984 -5.181992,-7.596985 -6.623001,-12.296997l0,0c-1,-3.182983 -1.550995,-6.291931 -1.638,-9.239014l0,0l-0.019989,-0.646973l0.480988,0.434021c5.178009,4.678955 10.531006,8.763 15.91,12.135986l0,0l0.059998,0.037048l0.034012,0.060913c0.719986,1.274048 1.542999,2.508057 2.446991,3.666016l0,0c3.826996,4.906982 8.863998,7.396057 14.970001,7.396057l0,0c3.964996,0 7.272003,-1.182983 9.826996,-3.515015l0,0c1.694004,-1.547058 2.839008,-3.542053 3.405003,-5.92804l0,0l0.070999,-0.294983l0.287003,0.097046c3.89801,1.320007 7.962997,2.523987 12.083008,3.578918l0,0l0.28299,0.072083l-0.087982,0.277954c-1.128998,3.574036 -3.183014,6.675964 -6.106018,9.218994l0,0c-4.747986,4.127014 -11.056004,6.221008 -18.748997,6.221008l0,0c-5.727997,0 -10.910995,-1.018982 -15.404999,-3.028992"/>
  </clipPath>
  <linearGradient spreadMethod="pad" id="linearGradient264" y2="0.056889" x2="0.500003" y1="1.089313" x1="0.500003">
   <stop stop-color="#558bc0" offset="0" id="stop266"/>
   <stop stop-color="#505a74" offset="1" id="stop268"/>
  </linearGradient>
  <clipPath id="clipPath276">
   <path id="path278" d="m-179.417969,1161.009888l595.280029,0l0,-793.69986l-595.280029,0l0,793.69986z"/>
  </clipPath>
 </defs>
 <g>
  <title>Layer 1</title>
  <g id="g10" transform="matrix(1.25 0 0 -1.25 0 992.125)">
   <g id="g12">
    <g id="g14" clip-path="url(#clipPath16)">
     <g id="g20">
      <g id="g22">
       <path fill="url(#linearGradient24)" id="path30" d="m120.490005,737.731995l11.203018,42.790039l10.949005,0l-11.002014,-42.790039l-11.150009,0z"/>
      </g>
     </g>
    </g>
   </g>
   <g id="g32">
    <path fill="#ffffff" fill-rule="nonzero" id="path34" d="m142.99704,780.79834l-0.712006,0l-10.378998,0l-0.425995,0l-0.108002,-0.412964l-11.059006,-42.237061l-0.180023,-0.692017l0.715027,0l10.577988,0l0.427002,0l0.108002,0.414063l10.859009,42.237976l0.177002,0.690002zm-0.712006,-0.552002l-10.859009,-42.237976l-10.577988,0l11.057999,42.237976l10.378998,0z"/>
   </g>
   <g id="g36">
    <g id="g38" clip-path="url(#clipPath40)">
     <g id="g44">
      <g id="g46">
       <path fill="url(#linearGradient48)" id="path54" d="m137.949036,737.731995l8.330994,31.877991l11.154022,0l-8.331024,-31.877991l-11.153992,0z"/>
      </g>
     </g>
    </g>
   </g>
   <g id="g56">
    <path fill="#ffffff" fill-rule="nonzero" id="path58" d="m157.791046,769.88623l-0.714996,0l-10.583008,0l-0.427002,0l-0.106995,-0.412964l-8.187012,-31.325073l-0.179993,-0.691956l0.714996,0l10.584015,0l0.425995,0l0.108002,0.411987l8.184998,31.32605l0.181,0.691956zm-0.714996,-0.552002l-8.184998,-31.325989l-10.584015,0l8.186005,31.325989l10.583008,0z"/>
   </g>
   <g id="g60">
    <g id="g62" clip-path="url(#clipPath64)">
     <g id="g68">
      <g id="g70">
       <path fill="url(#linearGradient72)" id="path78" d="m179.958038,769.228027c-2.011993,-0.682983 -4.192993,-1.801025 -6.488983,-3.328003l0,0l0.940979,3.709961l-10.595978,0l-8.32901,-31.877991l11.149994,0l3.411011,13.067017c0.970978,3.71106 1.852997,6.195007 2.621002,7.386047l0,0c1.052002,1.664001 2.518982,3.021973 4.359985,4.033936l0,0c1.843018,1.015076 3.535004,1.530029 5.028992,1.530029l0,0c1.355011,0 2.421021,-0.292969 3.167023,-0.872009l0,0c0.735992,-0.566956 1.09198,-1.330994 1.09198,-2.33197l0,0c0,-0.47998 -0.343994,-2.054016 -1.022003,-4.68103l0,0l-4.735992,-18.132019l11.153015,0l4.661987,17.934021c0.824005,3.119019 1.225006,5.187012 1.225006,6.325012l0,0c0,2.515015 -0.971008,4.562988 -2.886017,6.085022l0,0c-1.901978,1.507935 -4.521973,2.271973 -7.787994,2.271973l0,0c-2.424988,0 -4.768982,-0.375977 -6.964996,-1.119995"/>
      </g>
     </g>
    </g>
   </g>
   <g id="g80">
    <g id="g82" clip-path="url(#clipPath84)">
     <g id="g88">
      <path fill="#ffffff" fill-rule="nonzero" id="path90" d="m186.923828,770.624512c-2.455994,0 -4.82901,-0.381958 -7.053986,-1.13501c-1.860016,-0.63092 -3.860016,-1.628967 -5.959015,-2.971924l0.679993,2.680969l0.175018,0.687988l-0.710022,0l-10.027985,0l-0.427002,0l-0.108002,-0.413025l-8.184998,-31.325928l-0.181,-0.69104l0.714996,0l10.579987,0l0.427002,0l0.107025,0.411987l3.358002,12.861023c0.962982,3.681946 1.832001,6.138977 2.583984,7.302979c1.029999,1.630005 2.463013,2.955017 4.261993,3.945984c1.803009,0.992065 3.450012,1.494995 4.897003,1.494995c1.291992,0 2.300995,-0.273926 2.998016,-0.813965c0.662994,-0.513 0.984985,-1.203979 0.984985,-2.114014c0,-0.313965 -0.175995,-1.367981 -1.013,-4.612l-4.647003,-17.78595l-0.181,-0.69104l0.714996,0l10.582001,0l0.427002,0l0.106995,0.413025l4.610016,17.728943c0.829987,3.139038 1.233002,5.231018 1.233002,6.392029c0,2.604004 -1.006012,4.723999 -2.98999,6.302002c-1.951019,1.546997 -4.629028,2.33197 -7.959015,2.33197m0,-0.551941c3.220001,0 5.756989,-0.739014 7.61499,-2.212036c1.856018,-1.475952 2.782013,-3.430969 2.782013,-5.869995c0,-1.100952 -0.404999,-3.187012 -1.214996,-6.254028l-4.610016,-17.727966l-10.582001,0l4.647003,17.786987c0.684998,2.654053 1.031006,4.238037 1.031006,4.75c0,1.080017 -0.39801,1.932007 -1.199005,2.549988c-0.798981,0.619019 -1.910004,0.929993 -3.335999,0.929993c-1.548981,0 -3.269989,-0.521973 -5.161987,-1.563965c-1.893005,-1.041016 -3.378998,-2.417969 -4.460999,-4.128967c-0.788025,-1.221008 -1.671997,-3.707031 -2.654999,-7.463013l-3.357025,-12.861023l-10.579987,0l8.186005,31.325012l10.027985,0l-1.031982,-4.069031c2.506989,1.72998 4.847992,2.963989 7.02298,3.702026c2.176025,0.737 4.469025,1.106018 6.877014,1.106018"/>
     </g>
    </g>
   </g>
   <g id="g92">
    <g id="g94" clip-path="url(#clipPath96)">
     <g id="g100">
      <g id="g102">
       <path fill="url(#linearGradient104)" id="path110" d="m204.51004,763.470032c-3.006012,-3.377014 -4.529999,-7.288025 -4.529999,-11.625977l0,0c0,-4.455017 1.695007,-8.085999 5.040985,-10.791016l0,0c3.330017,-2.692017 7.70401,-4.057007 13.005005,-4.057007l0,0c3.855011,0 7.389008,0.778015 10.503021,2.314026l0,0c3.118988,1.539978 5.643982,3.882935 7.506989,6.963989l0,0l0.217987,0.359985l-10.062988,1.346008l-0.095001,-0.141968c-1.904999,-2.815063 -4.593994,-4.243042 -7.994995,-4.243042l0,0c-2.062012,0 -3.830994,0.622009 -5.259003,1.85199l0,0c-1.416992,1.213989 -2.13501,2.83905 -2.13501,4.833008l0,0c0,0.125 0.006012,0.287964 0.019012,0.491028l0,0l26.494995,0l0.05899,0.19696c0.497009,1.653992 0.749023,3.534973 0.749023,5.594971l0,0c0,4.331055 -1.460022,7.752014 -4.33902,10.167053l0,0c-2.865997,2.401001 -6.772003,3.617981 -11.606995,3.617981l0,0c-7.567993,0 -13.480011,-2.312988 -17.572998,-6.877991m10.716003,-1.640015c1.675995,1.27301 3.598999,1.919006 5.716003,1.919006l0,0c2.105988,0 3.804993,-0.561035 5.049988,-1.667969l0,0c1.235016,-1.105042 1.862,-2.791992 1.862,-5.015991l0,0c0,-0.14502 -0.006989,-0.338074 -0.020996,-0.579041l0,0l-15.941986,0c0.617981,2.334961 1.73999,4.131042 3.334991,5.343994"/>
      </g>
     </g>
    </g>
   </g>
   <g id="g112">
    <g id="g114" clip-path="url(#clipPath116)">
     <g id="g120">
      <path fill="#ffffff" fill-rule="nonzero" id="path122" d="m212.254944,756.76123c0.618988,2.106018 1.673004,3.734985 3.138,4.848999c1.627991,1.236023 3.493988,1.863037 5.549011,1.863037c2.03598,0 3.672974,-0.537048 4.866974,-1.598999c1.175018,-1.049011 1.77002,-2.66803 1.77002,-4.809082c0,-0.083923 -0.002991,-0.185913 -0.007996,-0.303955l-15.31601,0zm9.828003,13.862976c-7.649994,0 -13.631989,-2.343994 -17.777008,-6.967957c-3.053986,-3.43103 -4.60199,-7.405029 -4.60199,-11.812012c0,-4.542969 1.730988,-8.244995 5.144989,-11.005981c3.378998,-2.731995 7.812012,-4.118042 13.177002,-4.118042c3.89801,0 7.472015,0.788025 10.625,2.342041c3.166992,1.563965 5.731995,3.942017 7.622009,7.06897l0.434998,0.721008l-0.834991,0.111023l-9.475006,1.267944l-0.33902,0.046021l-0.191986,-0.283997c-1.876007,-2.773987 -4.415985,-4.122986 -7.765015,-4.122986c-1.994995,0 -3.703979,0.600952 -5.078979,1.785034c-1.373016,1.175964 -2.040009,2.688965 -2.040009,4.624939c0,0.060974 0.001007,0.132996 0.003998,0.215027l26.028992,0l0.410004,0l0.118011,0.393005c0.505005,1.679993 0.760986,3.588989 0.760986,5.674988c0,4.416992 -1.491974,7.907959 -4.436981,10.377991c-2.917999,2.44397 -6.882996,3.682983 -11.785004,3.682983m-10.54599,-14.414978l16.556,0c0.023987,0.373047 0.037994,0.65802 0.037994,0.855957c0,2.320007 -0.653015,4.058044 -1.955017,5.222046c-1.302979,1.15802 -3.048981,1.738037 -5.233978,1.738037c-2.190002,0 -4.150024,-0.658997 -5.883026,-1.976013c-1.732971,-1.315979 -2.906982,-3.265991 -3.521973,-5.840027m10.54599,13.863037c4.794006,0 8.602997,-1.186035 11.431,-3.554077c2.825989,-2.370972 4.238983,-5.687927 4.238983,-9.954956c0,-2.045044 -0.246979,-3.88501 -0.737,-5.515991l-26.546997,0c-0.026978,-0.335999 -0.037994,-0.589966 -0.037994,-0.767029c0,-2.085938 0.743011,-3.768005 2.231018,-5.042969c1.487,-1.279968 3.300995,-1.917969 5.439972,-1.917969c3.512024,0 6.255005,1.454956 8.222015,4.364929l9.476013,-1.267944c-1.843018,-3.049072 -4.309021,-5.335999 -7.394012,-6.859009c-3.085999,-1.522034 -6.545013,-2.285034 -10.380005,-2.285034c-5.259003,0 -9.536987,1.332031 -12.830994,3.995972c-3.294006,2.664063 -4.938995,6.189087 -4.938995,10.57605c0,4.286987 1.485992,8.10199 4.460999,11.442993c4.056,4.52301 9.845001,6.785034 17.365997,6.785034"/>
     </g>
    </g>
   </g>
   <g id="g124">
    <g id="g126" clip-path="url(#clipPath128)">
     <g id="g132">
      <g id="g134">
       <path fill="url(#linearGradient136)" id="path142" d="m147.69104,777.893066c0,-2.958984 2.574005,-5.358032 5.752014,-5.358032l0,0c3.173981,0 5.75,2.399048 5.75,5.358032l0,0c0,2.958984 -2.576019,5.359009 -5.75,5.359009l0,0c-3.178009,0 -5.752014,-2.400024 -5.752014,-5.359009"/>
      </g>
     </g>
    </g>
   </g>
   <g id="g144">
    <g id="g146" clip-path="url(#clipPath148)">
     <g id="g152">
      <path fill="none" stroke="#ffffff" stroke-width="0.559" stroke-miterlimit="4" id="path154" d="m159.193329,777.892517c0,-2.959045 -2.575989,-5.356995 -5.75,-5.356995c-3.178986,0 -5.752014,2.397949 -5.752014,5.356995c0,2.959045 2.573029,5.359009 5.752014,5.359009c3.174011,0 5.75,-2.399963 5.75,-5.359009z"/>
     </g>
    </g>
   </g>
   <g id="g156">
    <g id="g158" clip-path="url(#clipPath160)">
     <g id="g164">
      <g id="g166">
       <path fill="url(#linearGradient168)" id="path174" d="m51.719006,764.933044c1.177002,8.622986 5.082001,14.182007 5.082001,14.182007l0,0c0,0 -27.993999,-4.856995 -56.801006,-43.994019l0,0c19.630005,19.176025 35.583004,27.691956 45.363003,32.052979l0,0c-1.777008,-3.476013 -3.837006,-17.375 -3.837006,-17.375l0,0c0,0 30.709003,25.677979 84.091022,29.541016l0,0c-3.313019,0.294983 -6.636993,0.429993 -9.942993,0.429993l0,0c-29.244019,0 -57.129017,-10.599976 -63.955021,-14.836975"/>
      </g>
     </g>
    </g>
   </g>
   <g id="g176">
    <g id="g178" clip-path="url(#clipPath180)">
     <g id="g184">
      <path fill="none" stroke="#ffffff" stroke-width="0.552" stroke-miterlimit="4" id="path186" d="m0.000015,735.121521c19.630005,19.176025 35.583004,27.69104 45.362987,32.052002c-1.776993,-3.475037 -3.837982,-17.373962 -3.837982,-17.373962c0,0 30.709003,25.677979 84.091999,29.539978c-3.312012,0.294983 -6.638,0.430969 -9.942993,0.430969c-29.243011,0 -57.129017,-10.600952 -63.955021,-14.837952c1.177002,8.622986 5.083008,14.182922 5.083008,14.182922c0,0 -27.994991,-4.85791 -56.801998,-43.993958z"/>
     </g>
    </g>
   </g>
   <g id="g188">
    <g id="g190" clip-path="url(#clipPath192)">
     <g id="g196">
      <g id="g198">
       <path fill="url(#linearGradient200)" id="path206" d="m102.654007,769.228027c-2.014008,-0.682983 -4.194,-1.801025 -6.48999,-3.328003l0,0l0.942993,3.709961l-10.597992,0l-8.332001,-31.877991l11.155975,0l3.406006,13.067017c0.971008,3.705994 1.85202,6.189026 2.621002,7.386047l0,0c1.053009,1.664978 2.520996,3.022949 4.363007,4.033936l0,0c1.842987,1.015076 3.535004,1.530029 5.028992,1.530029l0,0c1.354004,0 2.421021,-0.292969 3.169006,-0.872009l0,0c0.733002,-0.569031 1.088989,-1.33197 1.088989,-2.33197l0,0c0,-0.337036 -0.177979,-1.425049 -1.02298,-4.68103l0,0l-4.735016,-18.132019l11.153015,0l4.66098,17.934021c0.825012,3.122009 1.226013,5.190002 1.226013,6.325012l0,0c0,2.513977 -0.972015,4.562012 -2.886993,6.085022l0,0c-1.899017,1.507935 -4.518005,2.271973 -7.786011,2.271973l0,0c-2.427002,0 -4.769989,-0.375977 -6.964996,-1.119995"/>
      </g>
     </g>
    </g>
   </g>
   <g id="g208">
    <g id="g210" clip-path="url(#clipPath212)">
     <g id="g216">
      <path fill="#ffffff" fill-rule="nonzero" id="path218" d="m109.619125,770.624512c-2.457001,0 -4.829987,-0.381958 -7.053986,-1.13501c-1.861023,-0.63092 -3.861023,-1.628967 -5.960022,-2.970947l0.682007,2.678955l0.174988,0.689026l-0.709991,0l-10.029999,0l-0.427002,0l-0.108002,-0.413025l-8.186005,-31.325928l-0.181,-0.69104l0.715027,0l10.583984,0l0.427002,0l0.106995,0.411987l3.354004,12.861023c0.963013,3.677002 1.832001,6.13501 2.584015,7.304016c1.029999,1.628967 2.463989,2.955017 4.263977,3.944946c1.803009,0.992065 3.450012,1.494995 4.897003,1.494995c1.291992,0 2.300995,-0.273926 3,-0.814941c0.660004,-0.513062 0.981995,-1.204041 0.981995,-2.113037c0,-0.263977 -0.131989,-1.212952 -1.013977,-4.610962l-4.64502,-17.786987l-0.181,-0.69104l0.714996,0l10.582001,0l0.427002,0l0.106995,0.413025l4.608002,17.728943c0.831024,3.140991 1.234009,5.233032 1.234009,6.392029c0,2.603027 -1.006012,4.722961 -2.990997,6.302002c-1.947998,1.546997 -4.625,2.33197 -7.957001,2.33197m0,-0.551941c3.221008,0 5.757996,-0.739014 7.613007,-2.212036c1.855988,-1.475952 2.78299,-3.430969 2.78299,-5.869995c0,-1.100952 -0.406006,-3.187012 -1.216003,-6.254028l-4.608002,-17.727966l-10.582001,0l4.64502,17.786987c0.688995,2.654053 1.031982,4.238037 1.031982,4.75c0,1.080017 -0.398987,1.932007 -1.195984,2.549988c-0.800995,0.619019 -1.914001,0.929993 -3.338013,0.929993c-1.548004,0 -3.269989,-0.521973 -5.161987,-1.563965c-1.89502,-1.041016 -3.381012,-2.417969 -4.463013,-4.128967c-0.785004,-1.221008 -1.67099,-3.707031 -2.653992,-7.463013l-3.354004,-12.861023l-10.583984,0l8.186981,31.325012l10.029999,0l-1.035004,-4.069031c2.507019,1.72998 4.848999,2.963989 7.024994,3.702026c2.175018,0.737 4.46701,1.106018 6.877014,1.106018"/>
     </g>
    </g>
   </g>
   <g id="g220">
    <g id="g222" clip-path="url(#clipPath224)">
     <g id="g228">
      <g id="g230">
       <path fill="url(#linearGradient232)" id="path238" d="m78.978012,767.280029c-4.912003,-1.80304 -9.75,-3.843994 -14.382996,-6.06604l0,0l-0.097,-0.046997l-0.039001,-0.098938c-0.403,-1.007996 -0.828007,-1.937012 -1.298008,-2.840027l0,0c-2.039001,-3.905029 -4.649002,-6.857971 -7.758987,-8.776978l0,0c-3.111008,-1.91803 -6.396011,-2.890991 -9.761002,-2.890991l0,0c-4.132004,0 -7.507004,1.222961 -10.033005,3.637939l0,0c-2.057007,1.965027 -3.287991,4.369019 -3.660994,7.145996l0,0l-0.056,0.420044l-0.362,-0.221008c-3.611006,-2.211975 -7.249006,-4.675964 -10.813002,-7.319031l0,0l-0.17601,-0.129944l0.088013,-0.202026c0.162994,-0.373962 0.330994,-0.750977 0.514999,-1.126038l0,0c1.651001,-3.372925 4.488998,-6.235962 8.432999,-8.509949l0,0c3.938992,-2.271973 8.873989,-3.424988 14.669994,-3.424988l0,0c6.660004,0 12.716003,1.444946 18.000992,4.295959l0,0c5.288013,2.851013 9.532017,6.97699 12.612003,12.266052l0,0c2.542007,4.359924 4.052017,8.936951 4.488998,13.60199l0,0l0.040985,0.434937l-0.41098,-0.149963z"/>
      </g>
     </g>
    </g>
   </g>
   <g id="g240">
    <g id="g242" clip-path="url(#clipPath244)">
     <g id="g248">
      <path fill="#ffffff" fill-rule="nonzero" id="path250" d="m79.704605,767.840332l-0.821991,-0.301025c-4.920013,-1.805969 -9.767014,-3.849976 -14.407013,-6.075989l-0.194,-0.093994l-0.078995,-0.199036c-0.399006,-0.998962 -0.820011,-1.919922 -1.287006,-2.814941c-2.013992,-3.859985 -4.591003,-6.776978 -7.658997,-8.670044c-3.065994,-1.890991 -6.302002,-2.849976 -9.615997,-2.849976c-4.057999,0 -7.369995,1.199036 -9.84201,3.562988c-2.011002,1.921021 -3.213985,4.269043 -3.576992,6.981995l-0.113007,0.841003l-0.722994,-0.44397c-3.619001,-2.216003 -7.264006,-4.682983 -10.833998,-7.332031l-0.352005,-0.26001l0.175003,-0.403015c0.164001,-0.378967 0.335007,-0.758972 0.520004,-1.138c1.675995,-3.421997 4.550995,-6.324951 8.542999,-8.62793c3.981991,-2.296021 8.963985,-3.460022 14.808987,-3.460022c6.706009,0 12.806,1.455994 18.132004,4.326965c5.333012,2.876038 9.61301,7.038025 12.720005,12.369995c2.561996,4.395996 4.084,9.01001 4.524002,13.716064l0.082001,0.870972zm-0.631012,-0.820007c-0.432983,-4.621033 -1.905975,-9.118958 -4.451996,-13.489014c-3.070999,-5.268982 -7.238998,-9.32196 -12.504993,-12.161987c-5.266998,-2.840027 -11.223999,-4.260986 -17.87001,-4.260986c-5.773987,0 -10.617996,1.127991 -14.532986,3.385986c-3.915009,2.257996 -6.688004,5.055054 -8.322998,8.393005c-0.182007,0.370972 -0.348999,0.743958 -0.51001,1.11499c3.580002,2.656006 7.174011,5.088013 10.793013,7.304993c0.379992,-2.833984 1.614988,-5.27594 3.742994,-7.30896c2.591003,-2.476013 5.998993,-3.715027 10.223999,-3.715027c3.435989,0 6.737991,0.979004 9.905991,2.932007c3.167999,1.954956 5.787003,4.916016 7.859009,8.88501c0.500992,0.960999 0.929005,1.914001 1.308994,2.86499c4.231003,2.028992 9.029999,4.098999 14.358994,6.054993"/>
     </g>
    </g>
   </g>
   <g id="g252">
    <g id="g254" clip-path="url(#clipPath256)">
     <g id="g260">
      <g id="g262">
       <path fill="url(#linearGradient264)" id="path270" d="m38.177013,789.595032c-4.494003,-2.007996 -8.271999,-4.78302 -11.229,-8.246033l0,0c-2.953995,-3.458984 -5.181992,-7.596985 -6.623001,-12.296997l0,0c-1,-3.182983 -1.550995,-6.291931 -1.638,-9.239014l0,0l-0.019989,-0.646973l0.480988,0.434021c5.178009,4.678955 10.531006,8.763 15.91,12.135986l0,0l0.059998,0.037048l0.034012,0.060913c0.719986,1.274048 1.542999,2.508057 2.446991,3.666016l0,0c3.826996,4.906982 8.863998,7.396057 14.970001,7.396057l0,0c3.964996,0 7.272003,-1.182983 9.826996,-3.515015l0,0c1.694004,-1.547058 2.839008,-3.542053 3.405003,-5.92804l0,0l0.070999,-0.294983l0.287003,0.097046c3.89801,1.320007 7.962997,2.523987 12.083008,3.578918l0,0l0.28299,0.072083l-0.087982,0.277954c-1.128998,3.574036 -3.183014,6.675964 -6.106018,9.218994l0,0c-4.747986,4.127014 -11.056004,6.221008 -18.748997,6.221008l0,0c-5.727997,0 -10.910995,-1.018982 -15.404999,-3.028992"/>
      </g>
     </g>
    </g>
   </g>
   <g id="g272">
    <g id="g274" clip-path="url(#clipPath276)">
     <g id="g280">
      <path fill="#ffffff" fill-rule="nonzero" id="path282" d="m53.582012,792.899841c-5.766998,0 -10.988007,-1.027039 -15.518005,-3.052002c-4.530991,-2.026001 -8.341991,-4.825012 -11.325985,-8.320007c-2.978012,-3.487976 -5.225006,-7.658997 -6.677002,-12.397034c-1.007004,-3.203918 -1.562012,-6.336975 -1.650009,-9.30896l-0.037994,-1.294006l0.960007,0.867004c5.165985,4.669006 10.505997,8.742004 15.872982,12.106995l0.118011,0.074036l0.069,0.122009c0.712997,1.262939 1.528,2.484985 2.422989,3.633972c3.77301,4.835999 8.736008,7.288025 14.751999,7.288025c3.895004,0 7.139008,-1.15802 9.642014,-3.442993c1.651993,-1.509033 2.769993,-3.455994 3.323002,-5.788025l0.139999,-0.590027l0.574997,0.195007c3.890991,1.317993 7.949005,2.52002 12.063004,3.572998l0.565002,0.14502l-0.175995,0.55603c-1.144012,3.622986 -3.226013,6.76593 -6.188004,9.342957c-4.799011,4.172974 -11.168018,6.289001 -18.930012,6.289001m0,-0.552002c7.660995,0 13.85001,-2.050964 18.567005,-6.153992c2.903992,-2.525024 4.909012,-5.558044 6.025009,-9.09198c-4.428009,-1.132996 -8.498016,-2.364014 -12.104004,-3.585022c-0.576004,2.427979 -1.726013,4.458984 -3.48801,6.067993c-2.619995,2.391968 -5.957993,3.587036 -10.014008,3.587036c-6.223999,0 -11.286987,-2.501038 -15.186996,-7.501038c-0.940002,-1.204956 -1.756989,-2.440002 -2.468994,-3.700989c-4.820995,-3.024048 -10.219006,-6.987 -15.949001,-12.164978c0.085999,2.911926 0.621002,5.96698 1.626007,9.164978c1.435989,4.686035 3.625992,8.752991 6.569,12.199951c2.942993,3.446045 6.652996,6.171997 11.132,8.174072c4.477997,2.002014 9.574997,3.003967 15.291992,3.003967"/>
     </g>
    </g>
   </g>
  </g>
 </g>
</svg>